<mxfile host="app.diagrams.net" modified="2023-06-21T15:47:28.937Z" agent="Mozilla/5.0 (Windows NT 10.0; Win64; x64) AppleWebKit/537.36 (KHTML, like Gecko) Chrome/114.0.0.0 Safari/537.36" etag="2bzIsEvUME3apAnu8EWM" version="21.5.0" type="github">
  <diagram id="C5RBs43oDa-KdzZeNtuy" name="Page-1">
    <mxGraphModel dx="2741" dy="988" grid="1" gridSize="10" guides="1" tooltips="1" connect="1" arrows="1" fold="1" page="1" pageScale="1" pageWidth="827" pageHeight="1169" math="0" shadow="0">
      <root>
        <mxCell id="WIyWlLk6GJQsqaUBKTNV-0" />
        <mxCell id="WIyWlLk6GJQsqaUBKTNV-1" parent="WIyWlLk6GJQsqaUBKTNV-0" />
        <mxCell id="Z4YXYu8KSRPK0NGSerr5-8" style="edgeStyle=orthogonalEdgeStyle;rounded=0;orthogonalLoop=1;jettySize=auto;html=1;entryX=0.463;entryY=0.019;entryDx=0;entryDy=0;entryPerimeter=0;" edge="1" parent="WIyWlLk6GJQsqaUBKTNV-1" source="Z4YXYu8KSRPK0NGSerr5-0" target="Z4YXYu8KSRPK0NGSerr5-3">
          <mxGeometry relative="1" as="geometry" />
        </mxCell>
        <mxCell id="Z4YXYu8KSRPK0NGSerr5-12" style="edgeStyle=orthogonalEdgeStyle;rounded=0;orthogonalLoop=1;jettySize=auto;html=1;" edge="1" parent="WIyWlLk6GJQsqaUBKTNV-1" source="Z4YXYu8KSRPK0NGSerr5-0">
          <mxGeometry relative="1" as="geometry">
            <mxPoint x="429" y="260" as="targetPoint" />
          </mxGeometry>
        </mxCell>
        <mxCell id="Z4YXYu8KSRPK0NGSerr5-0" value="Cont existent?" style="rhombus;whiteSpace=wrap;html=1;" vertex="1" parent="WIyWlLk6GJQsqaUBKTNV-1">
          <mxGeometry x="219" y="210" width="110" height="100" as="geometry" />
        </mxCell>
        <mxCell id="Z4YXYu8KSRPK0NGSerr5-2" style="edgeStyle=orthogonalEdgeStyle;rounded=0;orthogonalLoop=1;jettySize=auto;html=1;entryX=0;entryY=0.5;entryDx=0;entryDy=0;" edge="1" parent="WIyWlLk6GJQsqaUBKTNV-1" target="Z4YXYu8KSRPK0NGSerr5-0">
          <mxGeometry relative="1" as="geometry">
            <mxPoint x="139" y="260" as="sourcePoint" />
          </mxGeometry>
        </mxCell>
        <mxCell id="Z4YXYu8KSRPK0NGSerr5-1" value="Pagina de pornire" style="rounded=1;whiteSpace=wrap;html=1;" vertex="1" parent="WIyWlLk6GJQsqaUBKTNV-1">
          <mxGeometry x="20" y="230" width="120" height="60" as="geometry" />
        </mxCell>
        <mxCell id="Z4YXYu8KSRPK0NGSerr5-13" style="edgeStyle=orthogonalEdgeStyle;rounded=0;orthogonalLoop=1;jettySize=auto;html=1;entryX=0.5;entryY=0;entryDx=0;entryDy=0;" edge="1" parent="WIyWlLk6GJQsqaUBKTNV-1" source="Z4YXYu8KSRPK0NGSerr5-3" target="Z4YXYu8KSRPK0NGSerr5-4">
          <mxGeometry relative="1" as="geometry" />
        </mxCell>
        <mxCell id="Z4YXYu8KSRPK0NGSerr5-3" value="Înregistrare" style="rounded=1;whiteSpace=wrap;html=1;" vertex="1" parent="WIyWlLk6GJQsqaUBKTNV-1">
          <mxGeometry x="219" y="120" width="120" height="60" as="geometry" />
        </mxCell>
        <mxCell id="Z4YXYu8KSRPK0NGSerr5-15" style="edgeStyle=orthogonalEdgeStyle;rounded=0;orthogonalLoop=1;jettySize=auto;html=1;entryX=0.5;entryY=0;entryDx=0;entryDy=0;" edge="1" parent="WIyWlLk6GJQsqaUBKTNV-1" source="Z4YXYu8KSRPK0NGSerr5-4" target="Z4YXYu8KSRPK0NGSerr5-14">
          <mxGeometry relative="1" as="geometry" />
        </mxCell>
        <mxCell id="Z4YXYu8KSRPK0NGSerr5-17" style="edgeStyle=orthogonalEdgeStyle;rounded=0;orthogonalLoop=1;jettySize=auto;html=1;entryX=-0.031;entryY=0.495;entryDx=0;entryDy=0;entryPerimeter=0;" edge="1" parent="WIyWlLk6GJQsqaUBKTNV-1" source="Z4YXYu8KSRPK0NGSerr5-4" target="Z4YXYu8KSRPK0NGSerr5-16">
          <mxGeometry relative="1" as="geometry" />
        </mxCell>
        <mxCell id="Z4YXYu8KSRPK0NGSerr5-26" style="edgeStyle=orthogonalEdgeStyle;rounded=0;orthogonalLoop=1;jettySize=auto;html=1;" edge="1" parent="WIyWlLk6GJQsqaUBKTNV-1" source="Z4YXYu8KSRPK0NGSerr5-4" target="Z4YXYu8KSRPK0NGSerr5-24">
          <mxGeometry relative="1" as="geometry" />
        </mxCell>
        <mxCell id="Z4YXYu8KSRPK0NGSerr5-4" value="Pagina Principală" style="rounded=1;whiteSpace=wrap;html=1;" vertex="1" parent="WIyWlLk6GJQsqaUBKTNV-1">
          <mxGeometry x="359" y="230" width="120" height="60" as="geometry" />
        </mxCell>
        <mxCell id="Z4YXYu8KSRPK0NGSerr5-9" value="Da" style="text;html=1;strokeColor=none;fillColor=none;align=center;verticalAlign=middle;whiteSpace=wrap;rounded=0;" vertex="1" parent="WIyWlLk6GJQsqaUBKTNV-1">
          <mxGeometry x="329" y="230" width="30" height="30" as="geometry" />
        </mxCell>
        <mxCell id="Z4YXYu8KSRPK0NGSerr5-10" value="Nu" style="text;html=1;strokeColor=none;fillColor=none;align=center;verticalAlign=middle;whiteSpace=wrap;rounded=0;" vertex="1" parent="WIyWlLk6GJQsqaUBKTNV-1">
          <mxGeometry x="269" y="180" width="60" height="30" as="geometry" />
        </mxCell>
        <mxCell id="Z4YXYu8KSRPK0NGSerr5-21" style="edgeStyle=orthogonalEdgeStyle;rounded=0;orthogonalLoop=1;jettySize=auto;html=1;entryX=1;entryY=0.5;entryDx=0;entryDy=0;" edge="1" parent="WIyWlLk6GJQsqaUBKTNV-1" source="Z4YXYu8KSRPK0NGSerr5-14" target="Z4YXYu8KSRPK0NGSerr5-18">
          <mxGeometry relative="1" as="geometry" />
        </mxCell>
        <mxCell id="Z4YXYu8KSRPK0NGSerr5-22" style="edgeStyle=orthogonalEdgeStyle;rounded=0;orthogonalLoop=1;jettySize=auto;html=1;entryX=0.463;entryY=-0.008;entryDx=0;entryDy=0;entryPerimeter=0;" edge="1" parent="WIyWlLk6GJQsqaUBKTNV-1" source="Z4YXYu8KSRPK0NGSerr5-14" target="Z4YXYu8KSRPK0NGSerr5-20">
          <mxGeometry relative="1" as="geometry" />
        </mxCell>
        <mxCell id="Z4YXYu8KSRPK0NGSerr5-23" style="edgeStyle=orthogonalEdgeStyle;rounded=0;orthogonalLoop=1;jettySize=auto;html=1;entryX=0;entryY=0.5;entryDx=0;entryDy=0;" edge="1" parent="WIyWlLk6GJQsqaUBKTNV-1" source="Z4YXYu8KSRPK0NGSerr5-14" target="Z4YXYu8KSRPK0NGSerr5-19">
          <mxGeometry relative="1" as="geometry" />
        </mxCell>
        <mxCell id="Z4YXYu8KSRPK0NGSerr5-14" value="Meniu" style="rounded=1;whiteSpace=wrap;html=1;" vertex="1" parent="WIyWlLk6GJQsqaUBKTNV-1">
          <mxGeometry x="279" y="340" width="110" height="60" as="geometry" />
        </mxCell>
        <mxCell id="Z4YXYu8KSRPK0NGSerr5-49" style="edgeStyle=orthogonalEdgeStyle;rounded=0;orthogonalLoop=1;jettySize=auto;html=1;entryX=0.445;entryY=-0.002;entryDx=0;entryDy=0;entryPerimeter=0;" edge="1" parent="WIyWlLk6GJQsqaUBKTNV-1" source="Z4YXYu8KSRPK0NGSerr5-16" target="Z4YXYu8KSRPK0NGSerr5-46">
          <mxGeometry relative="1" as="geometry" />
        </mxCell>
        <mxCell id="Z4YXYu8KSRPK0NGSerr5-50" style="edgeStyle=orthogonalEdgeStyle;rounded=0;orthogonalLoop=1;jettySize=auto;html=1;entryX=0.5;entryY=0;entryDx=0;entryDy=0;" edge="1" parent="WIyWlLk6GJQsqaUBKTNV-1" source="Z4YXYu8KSRPK0NGSerr5-16" target="Z4YXYu8KSRPK0NGSerr5-47">
          <mxGeometry relative="1" as="geometry" />
        </mxCell>
        <mxCell id="Z4YXYu8KSRPK0NGSerr5-16" value="Căutare" style="rounded=1;whiteSpace=wrap;html=1;" vertex="1" parent="WIyWlLk6GJQsqaUBKTNV-1">
          <mxGeometry x="730" y="290" width="120" height="60" as="geometry" />
        </mxCell>
        <mxCell id="Z4YXYu8KSRPK0NGSerr5-41" style="edgeStyle=orthogonalEdgeStyle;rounded=0;orthogonalLoop=1;jettySize=auto;html=1;entryX=1;entryY=0.5;entryDx=0;entryDy=0;" edge="1" parent="WIyWlLk6GJQsqaUBKTNV-1" source="Z4YXYu8KSRPK0NGSerr5-18" target="Z4YXYu8KSRPK0NGSerr5-40">
          <mxGeometry relative="1" as="geometry" />
        </mxCell>
        <mxCell id="Z4YXYu8KSRPK0NGSerr5-18" value="Profil" style="rounded=1;whiteSpace=wrap;html=1;" vertex="1" parent="WIyWlLk6GJQsqaUBKTNV-1">
          <mxGeometry x="89" y="340" width="120" height="60" as="geometry" />
        </mxCell>
        <mxCell id="Z4YXYu8KSRPK0NGSerr5-43" style="edgeStyle=orthogonalEdgeStyle;rounded=0;orthogonalLoop=1;jettySize=auto;html=1;entryX=0.5;entryY=0;entryDx=0;entryDy=0;" edge="1" parent="WIyWlLk6GJQsqaUBKTNV-1" source="Z4YXYu8KSRPK0NGSerr5-19" target="Z4YXYu8KSRPK0NGSerr5-42">
          <mxGeometry relative="1" as="geometry" />
        </mxCell>
        <mxCell id="Z4YXYu8KSRPK0NGSerr5-48" style="edgeStyle=orthogonalEdgeStyle;rounded=0;orthogonalLoop=1;jettySize=auto;html=1;entryX=0;entryY=0.5;entryDx=0;entryDy=0;" edge="1" parent="WIyWlLk6GJQsqaUBKTNV-1" source="Z4YXYu8KSRPK0NGSerr5-19" target="Z4YXYu8KSRPK0NGSerr5-44">
          <mxGeometry relative="1" as="geometry" />
        </mxCell>
        <mxCell id="Z4YXYu8KSRPK0NGSerr5-19" value="Istoric Rezervări" style="rounded=1;whiteSpace=wrap;html=1;" vertex="1" parent="WIyWlLk6GJQsqaUBKTNV-1">
          <mxGeometry x="430" y="340" width="120" height="60" as="geometry" />
        </mxCell>
        <mxCell id="Z4YXYu8KSRPK0NGSerr5-35" style="edgeStyle=orthogonalEdgeStyle;rounded=0;orthogonalLoop=1;jettySize=auto;html=1;entryX=0.418;entryY=0.029;entryDx=0;entryDy=0;entryPerimeter=0;" edge="1" parent="WIyWlLk6GJQsqaUBKTNV-1" source="Z4YXYu8KSRPK0NGSerr5-20" target="Z4YXYu8KSRPK0NGSerr5-33">
          <mxGeometry relative="1" as="geometry" />
        </mxCell>
        <mxCell id="Z4YXYu8KSRPK0NGSerr5-36" style="edgeStyle=orthogonalEdgeStyle;rounded=0;orthogonalLoop=1;jettySize=auto;html=1;entryX=0.622;entryY=0.044;entryDx=0;entryDy=0;entryPerimeter=0;" edge="1" parent="WIyWlLk6GJQsqaUBKTNV-1" source="Z4YXYu8KSRPK0NGSerr5-20" target="Z4YXYu8KSRPK0NGSerr5-34">
          <mxGeometry relative="1" as="geometry" />
        </mxCell>
        <mxCell id="Z4YXYu8KSRPK0NGSerr5-20" value="Proprietăți" style="rounded=1;whiteSpace=wrap;html=1;" vertex="1" parent="WIyWlLk6GJQsqaUBKTNV-1">
          <mxGeometry x="279" y="450" width="120" height="60" as="geometry" />
        </mxCell>
        <mxCell id="Z4YXYu8KSRPK0NGSerr5-30" style="edgeStyle=orthogonalEdgeStyle;rounded=0;orthogonalLoop=1;jettySize=auto;html=1;entryX=0;entryY=0.5;entryDx=0;entryDy=0;" edge="1" parent="WIyWlLk6GJQsqaUBKTNV-1" source="Z4YXYu8KSRPK0NGSerr5-24" target="Z4YXYu8KSRPK0NGSerr5-27">
          <mxGeometry relative="1" as="geometry" />
        </mxCell>
        <mxCell id="Z4YXYu8KSRPK0NGSerr5-24" value="Forum" style="rounded=1;whiteSpace=wrap;html=1;" vertex="1" parent="WIyWlLk6GJQsqaUBKTNV-1">
          <mxGeometry x="509" y="165" width="120" height="60" as="geometry" />
        </mxCell>
        <mxCell id="Z4YXYu8KSRPK0NGSerr5-31" style="edgeStyle=orthogonalEdgeStyle;rounded=0;orthogonalLoop=1;jettySize=auto;html=1;entryX=0.55;entryY=0.986;entryDx=0;entryDy=0;entryPerimeter=0;" edge="1" parent="WIyWlLk6GJQsqaUBKTNV-1" source="Z4YXYu8KSRPK0NGSerr5-27" target="Z4YXYu8KSRPK0NGSerr5-28">
          <mxGeometry relative="1" as="geometry" />
        </mxCell>
        <mxCell id="Z4YXYu8KSRPK0NGSerr5-27" value="Categorii" style="rounded=1;whiteSpace=wrap;html=1;" vertex="1" parent="WIyWlLk6GJQsqaUBKTNV-1">
          <mxGeometry x="690" y="165" width="120" height="60" as="geometry" />
        </mxCell>
        <mxCell id="Z4YXYu8KSRPK0NGSerr5-32" value="" style="edgeStyle=orthogonalEdgeStyle;rounded=0;orthogonalLoop=1;jettySize=auto;html=1;" edge="1" parent="WIyWlLk6GJQsqaUBKTNV-1" source="Z4YXYu8KSRPK0NGSerr5-28" target="Z4YXYu8KSRPK0NGSerr5-29">
          <mxGeometry relative="1" as="geometry" />
        </mxCell>
        <mxCell id="Z4YXYu8KSRPK0NGSerr5-28" value="Subiecte" style="rounded=1;whiteSpace=wrap;html=1;" vertex="1" parent="WIyWlLk6GJQsqaUBKTNV-1">
          <mxGeometry x="680" y="50" width="120" height="60" as="geometry" />
        </mxCell>
        <mxCell id="Z4YXYu8KSRPK0NGSerr5-29" value="Postări" style="rounded=1;whiteSpace=wrap;html=1;" vertex="1" parent="WIyWlLk6GJQsqaUBKTNV-1">
          <mxGeometry x="499" y="50" width="120" height="60" as="geometry" />
        </mxCell>
        <mxCell id="Z4YXYu8KSRPK0NGSerr5-39" style="edgeStyle=orthogonalEdgeStyle;rounded=0;orthogonalLoop=1;jettySize=auto;html=1;entryX=0;entryY=0.5;entryDx=0;entryDy=0;" edge="1" parent="WIyWlLk6GJQsqaUBKTNV-1" source="Z4YXYu8KSRPK0NGSerr5-33" target="Z4YXYu8KSRPK0NGSerr5-34">
          <mxGeometry relative="1" as="geometry" />
        </mxCell>
        <mxCell id="Z4YXYu8KSRPK0NGSerr5-33" value="Adaugare" style="rounded=1;whiteSpace=wrap;html=1;" vertex="1" parent="WIyWlLk6GJQsqaUBKTNV-1">
          <mxGeometry x="200" y="560" width="120" height="60" as="geometry" />
        </mxCell>
        <mxCell id="Z4YXYu8KSRPK0NGSerr5-38" style="edgeStyle=orthogonalEdgeStyle;rounded=0;orthogonalLoop=1;jettySize=auto;html=1;entryX=0.5;entryY=0;entryDx=0;entryDy=0;" edge="1" parent="WIyWlLk6GJQsqaUBKTNV-1" source="Z4YXYu8KSRPK0NGSerr5-34" target="Z4YXYu8KSRPK0NGSerr5-37">
          <mxGeometry relative="1" as="geometry" />
        </mxCell>
        <mxCell id="Z4YXYu8KSRPK0NGSerr5-34" value="Vizualizare" style="rounded=1;whiteSpace=wrap;html=1;" vertex="1" parent="WIyWlLk6GJQsqaUBKTNV-1">
          <mxGeometry x="354" y="560" width="120" height="60" as="geometry" />
        </mxCell>
        <mxCell id="Z4YXYu8KSRPK0NGSerr5-37" value="Actualizare" style="rounded=1;whiteSpace=wrap;html=1;" vertex="1" parent="WIyWlLk6GJQsqaUBKTNV-1">
          <mxGeometry x="354" y="670" width="120" height="60" as="geometry" />
        </mxCell>
        <mxCell id="Z4YXYu8KSRPK0NGSerr5-40" value="Actualizare" style="rounded=1;whiteSpace=wrap;html=1;" vertex="1" parent="WIyWlLk6GJQsqaUBKTNV-1">
          <mxGeometry x="-90" y="340" width="120" height="60" as="geometry" />
        </mxCell>
        <mxCell id="Z4YXYu8KSRPK0NGSerr5-42" value="Expirate" style="rounded=1;whiteSpace=wrap;html=1;" vertex="1" parent="WIyWlLk6GJQsqaUBKTNV-1">
          <mxGeometry x="450" y="450" width="110" height="50" as="geometry" />
        </mxCell>
        <mxCell id="Z4YXYu8KSRPK0NGSerr5-44" value="În desfășurare" style="rounded=1;whiteSpace=wrap;html=1;" vertex="1" parent="WIyWlLk6GJQsqaUBKTNV-1">
          <mxGeometry x="580" y="345" width="110" height="50" as="geometry" />
        </mxCell>
        <mxCell id="Z4YXYu8KSRPK0NGSerr5-52" style="edgeStyle=orthogonalEdgeStyle;rounded=0;orthogonalLoop=1;jettySize=auto;html=1;entryX=0.5;entryY=0;entryDx=0;entryDy=0;" edge="1" parent="WIyWlLk6GJQsqaUBKTNV-1" source="Z4YXYu8KSRPK0NGSerr5-46" target="Z4YXYu8KSRPK0NGSerr5-51">
          <mxGeometry relative="1" as="geometry" />
        </mxCell>
        <mxCell id="Z4YXYu8KSRPK0NGSerr5-46" value="După Oraș" style="rounded=1;whiteSpace=wrap;html=1;" vertex="1" parent="WIyWlLk6GJQsqaUBKTNV-1">
          <mxGeometry x="660" y="420" width="120" height="60" as="geometry" />
        </mxCell>
        <mxCell id="Z4YXYu8KSRPK0NGSerr5-53" style="edgeStyle=orthogonalEdgeStyle;rounded=0;orthogonalLoop=1;jettySize=auto;html=1;entryX=1;entryY=0.5;entryDx=0;entryDy=0;" edge="1" parent="WIyWlLk6GJQsqaUBKTNV-1" source="Z4YXYu8KSRPK0NGSerr5-47" target="Z4YXYu8KSRPK0NGSerr5-51">
          <mxGeometry relative="1" as="geometry">
            <mxPoint x="820" y="540" as="targetPoint" />
          </mxGeometry>
        </mxCell>
        <mxCell id="Z4YXYu8KSRPK0NGSerr5-47" value="După Tip" style="rounded=1;whiteSpace=wrap;html=1;" vertex="1" parent="WIyWlLk6GJQsqaUBKTNV-1">
          <mxGeometry x="840" y="420" width="120" height="60" as="geometry" />
        </mxCell>
        <mxCell id="Z4YXYu8KSRPK0NGSerr5-55" style="edgeStyle=orthogonalEdgeStyle;rounded=0;orthogonalLoop=1;jettySize=auto;html=1;entryX=0.5;entryY=0;entryDx=0;entryDy=0;" edge="1" parent="WIyWlLk6GJQsqaUBKTNV-1" source="Z4YXYu8KSRPK0NGSerr5-51" target="Z4YXYu8KSRPK0NGSerr5-54">
          <mxGeometry relative="1" as="geometry" />
        </mxCell>
        <mxCell id="Z4YXYu8KSRPK0NGSerr5-51" value="Rezultat Căutare" style="rounded=1;whiteSpace=wrap;html=1;" vertex="1" parent="WIyWlLk6GJQsqaUBKTNV-1">
          <mxGeometry x="710" y="555" width="120" height="60" as="geometry" />
        </mxCell>
        <mxCell id="Z4YXYu8KSRPK0NGSerr5-57" style="edgeStyle=orthogonalEdgeStyle;rounded=0;orthogonalLoop=1;jettySize=auto;html=1;entryX=0;entryY=0.5;entryDx=0;entryDy=0;" edge="1" parent="WIyWlLk6GJQsqaUBKTNV-1" source="Z4YXYu8KSRPK0NGSerr5-54" target="Z4YXYu8KSRPK0NGSerr5-56">
          <mxGeometry relative="1" as="geometry" />
        </mxCell>
        <mxCell id="Z4YXYu8KSRPK0NGSerr5-54" value="Detalii Proprietate" style="rounded=1;whiteSpace=wrap;html=1;" vertex="1" parent="WIyWlLk6GJQsqaUBKTNV-1">
          <mxGeometry x="690" y="680" width="120" height="60" as="geometry" />
        </mxCell>
        <mxCell id="Z4YXYu8KSRPK0NGSerr5-58" style="edgeStyle=orthogonalEdgeStyle;rounded=0;orthogonalLoop=1;jettySize=auto;html=1;entryX=0.5;entryY=1;entryDx=0;entryDy=0;" edge="1" parent="WIyWlLk6GJQsqaUBKTNV-1" source="Z4YXYu8KSRPK0NGSerr5-56" target="Z4YXYu8KSRPK0NGSerr5-44">
          <mxGeometry relative="1" as="geometry" />
        </mxCell>
        <mxCell id="Z4YXYu8KSRPK0NGSerr5-56" value="Rezervare" style="rounded=1;whiteSpace=wrap;html=1;" vertex="1" parent="WIyWlLk6GJQsqaUBKTNV-1">
          <mxGeometry x="540" y="590" width="120" height="60" as="geometry" />
        </mxCell>
      </root>
    </mxGraphModel>
  </diagram>
</mxfile>
